<svg width="320" height="294" viewBox="0 0 320 294" fill="none" xmlns="http://www.w3.org/2000/svg">
<path d="M56.2238 191.605L56.4105 191.909C56.9983 192.889 57.8217 193.708 58.8066 194.293C59.7915 194.878 60.9071 195.211 62.0532 195.261C63.1993 195.311 64.34 195.077 65.3728 194.581C66.4056 194.084 67.2981 193.34 67.9703 192.415C80.2091 175.532 110.017 142.626 146.054 152.131C164.251 156.926 173.078 165.638 191.292 192.922C192.28 194.388 193.798 195.419 195.531 195.799C197.264 196.18 199.077 195.881 200.594 194.965C202.131 194.055 203.254 192.588 203.725 190.872C204.197 189.155 203.981 187.324 203.123 185.763C195.417 171.817 173.197 138.388 139.264 136.801C103.617 135.113 77.0518 154.343 56.4105 184.193C55.6779 185.284 55.2715 186.56 55.2385 187.872C55.2054 189.184 55.5471 190.478 56.2238 191.605V191.605Z" fill="#69717F"/>
<path d="M29.9977 148.231L30.1845 148.551C30.7752 149.528 31.5995 150.344 32.5842 150.926C33.5689 151.509 34.6832 151.84 35.8277 151.89C36.9723 151.94 38.1115 151.708 39.1438 151.214C40.1762 150.719 41.0696 149.979 41.7443 149.058C53.983 132.174 85.1146 77.6409 143.389 86.319C178.34 91.5191 200.288 120.896 218.502 148.231C219.493 149.694 221.012 150.721 222.745 151.099C224.477 151.476 226.289 151.174 227.804 150.257V150.257C229.338 149.344 230.458 147.877 230.929 146.162C231.401 144.447 231.187 142.617 230.333 141.055C222.61 127.109 187.269 68.8446 129.3 70.7017C83.1116 72.1875 50.8427 110.901 30.2014 140.768C29.456 141.863 29.0408 143.148 29.0047 144.47C28.9686 145.792 29.3131 147.097 29.9977 148.231V148.231Z" fill="#69717F"/>
<path d="M1.85359 106.005L2.04029 106.325C2.63096 107.302 3.45539 108.118 4.44005 108.7C5.42471 109.283 6.53897 109.614 7.68352 109.664C8.82808 109.714 9.96734 109.482 10.9997 108.987C12.032 108.493 12.9254 107.753 13.6001 106.832C25.8389 89.9484 54.8996 22.4144 129.843 18.4806C184.162 15.6441 226.022 74.1961 244.219 101.497C245.215 102.958 246.738 103.983 248.472 104.36C250.206 104.737 252.019 104.437 253.538 103.523V103.523C255.075 102.613 256.197 101.145 256.666 99.4275C257.135 97.7104 256.914 95.8793 256.05 94.3212C248.344 80.3754 193.821 -5.00436 122.035 2.91399C51.2161 10.7142 22.7155 68.6752 2.05728 98.542C1.31183 99.6373 0.896569 100.922 0.86048 102.244C0.824392 103.566 1.16899 104.871 1.85359 106.005Z" fill="#69717F"/>
<path d="M59.1604 191.605L59.3472 191.926C59.9379 192.902 60.7623 193.718 61.7469 194.3C62.7316 194.883 63.8459 195.214 64.9904 195.264C66.135 195.314 67.2742 195.082 68.3066 194.588C69.3389 194.094 70.2323 193.353 70.907 192.432C83.1457 175.549 112.953 142.626 148.991 152.148C167.188 156.943 176.014 165.655 194.228 192.939C195.219 194.402 196.737 195.43 198.469 195.81C200.2 196.19 202.013 195.894 203.53 194.982V194.982C205.072 194.072 206.198 192.601 206.67 190.881C207.142 189.161 206.923 187.326 206.06 185.763C198.353 171.834 176.133 138.405 142.218 136.801C106.571 135.113 79.9884 154.326 59.3472 184.193C58.6107 185.283 58.202 186.559 58.1689 187.872C58.1358 189.185 58.4798 190.48 59.1604 191.605V191.605Z" fill="#6C7482"/>
<path d="M32.9177 148.197L33.1044 148.518C33.6937 149.497 34.5183 150.315 35.504 150.898C36.4897 151.482 37.6056 151.813 38.7517 151.861C39.8977 151.91 41.038 151.674 42.07 151.176C43.102 150.678 43.9934 149.933 44.6642 149.008C56.903 132.124 88.0516 77.6073 146.309 86.2685C181.26 91.4686 203.208 120.846 221.422 148.18C222.413 149.643 223.931 150.671 225.662 151.051C227.394 151.432 229.206 151.135 230.724 150.223V150.223C232.267 149.301 233.389 147.819 233.855 146.09C234.32 144.361 234.093 142.519 233.219 140.954C225.496 127.025 190.155 68.7603 132.186 70.6175C85.9977 72.0864 53.7457 110.817 33.0875 140.684C32.3368 141.788 31.9216 143.083 31.8915 144.416C31.8614 145.748 32.2177 147.061 32.9177 148.197V148.197Z" fill="#6C7482"/>
<path d="M4.79051 105.971L4.97726 106.275C5.56508 107.255 6.3884 108.074 7.37329 108.659C8.35819 109.244 9.47378 109.577 10.6199 109.627C11.766 109.677 12.9066 109.444 13.9394 108.947C14.9723 108.45 15.8649 107.706 16.537 106.782C28.7758 89.898 57.8365 22.3641 132.78 18.4471C187.099 15.6107 228.959 74.1626 247.173 101.446C248.161 102.913 249.679 103.943 251.412 104.324C253.144 104.704 254.958 104.405 256.475 103.489V103.489C258.014 102.577 259.136 101.105 259.604 99.3851C260.073 97.6652 259.852 95.8315 258.987 94.2709C251.281 80.342 196.758 -5.03781 124.972 2.88055C54.1531 10.6807 25.6524 68.6417 4.9942 98.4917C4.24923 99.5903 3.83441 100.877 3.79833 102.202C3.76226 103.527 4.10643 104.834 4.79051 105.971V105.971Z" fill="#6C7482"/>
<path d="M62.097 191.605L62.2837 191.909C62.8716 192.889 63.6949 193.708 64.6798 194.293C65.6647 194.878 66.7803 195.211 67.9264 195.261C69.0725 195.311 70.2132 195.077 71.246 194.581C72.2788 194.084 73.1714 193.34 73.8435 192.415C86.0823 175.532 115.89 142.626 151.927 152.131C170.124 156.926 178.968 165.638 197.165 192.939C198.161 194.4 199.684 195.425 201.418 195.802C203.152 196.179 204.966 195.879 206.484 194.965C208.022 194.055 209.143 192.587 209.612 190.87C210.081 189.152 209.86 187.321 208.996 185.763C201.29 171.817 179.07 138.388 145.154 136.801C109.423 135.113 82.925 154.343 62.2837 184.193C61.555 185.286 61.151 186.561 61.1179 187.872C61.0849 189.183 61.4242 190.477 62.097 191.605V191.605Z" fill="#6F7684"/>
<path d="M35.8709 148.146L36.0577 148.467C36.6484 149.444 37.4728 150.259 38.4575 150.842C39.4421 151.424 40.5564 151.756 41.7009 151.806C42.8455 151.856 43.9847 151.624 45.0171 151.129C46.0494 150.635 46.9428 149.895 47.6175 148.974C59.8563 132.09 91.0049 77.5566 149.262 86.2347C184.213 91.4348 206.161 120.812 224.375 148.146C225.369 149.607 226.888 150.631 228.619 151.008C230.351 151.385 232.162 151.086 233.677 150.172V150.172C235.215 149.263 236.337 147.796 236.809 146.079C237.281 144.363 237.065 142.532 236.207 140.971C228.5 127.025 193.142 68.7603 135.173 70.6175C88.9849 72.1033 56.7329 110.817 36.0746 140.684C35.3292 141.779 34.914 143.064 34.8779 144.386C34.8418 145.708 35.1863 147.013 35.8709 148.146V148.146Z" fill="#6F7684"/>
<path d="M7.72693 105.921L7.91362 106.242C8.5043 107.218 9.32873 108.034 10.3134 108.616C11.298 109.199 12.4124 109.53 13.5569 109.58C14.7015 109.63 15.8407 109.398 16.873 108.904C17.9054 108.409 18.7987 107.669 19.4734 106.748C31.7122 89.8645 60.7729 22.3306 135.716 18.3967C190.035 15.5603 231.895 74.1122 250.109 101.413C251.099 102.876 252.619 103.903 254.352 104.281C256.084 104.658 257.896 104.357 259.411 103.439V103.439C260.949 102.529 262.07 101.061 262.539 99.3437C263.008 97.6266 262.787 95.7954 261.923 94.2373C254.217 80.2916 199.694 -5.07131 127.823 2.83016C57.0215 10.6472 28.504 68.5913 7.8627 98.4582C7.1236 99.5584 6.7179 100.847 6.69383 102.17C6.66975 103.493 7.02834 104.795 7.72693 105.921V105.921Z" fill="#6F7684"/>
<path d="M65.0337 191.47L65.2204 191.791C65.811 192.767 66.6355 193.583 67.6201 194.165C68.6048 194.748 69.719 195.079 70.8636 195.129C72.0081 195.179 73.1474 194.947 74.1797 194.453C75.2121 193.959 76.1054 193.218 76.7801 192.297C89.0189 175.414 118.827 142.508 154.864 152.013C173.061 156.808 181.905 165.52 200.118 192.804C201.109 194.267 202.627 195.294 204.359 195.675C206.09 196.055 207.903 195.759 209.421 194.847V194.847C210.959 193.934 212.081 192.462 212.55 190.742C213.019 189.023 212.798 187.189 211.933 185.628C204.226 171.699 182.006 138.354 148.091 136.666C112.359 134.978 85.8786 154.191 65.2204 184.058C64.4878 185.149 64.0814 186.425 64.0483 187.737C64.0153 189.049 64.3569 190.343 65.0337 191.47V191.47Z" fill="#717986"/>
<path d="M38.8078 148.113L38.9945 148.434C39.5838 149.413 40.4083 150.23 41.394 150.814C42.3797 151.398 43.4958 151.729 44.6418 151.777C45.7879 151.826 46.9281 151.59 47.9601 151.092C48.9921 150.594 49.8835 149.849 50.5544 148.923C62.7931 132.04 93.9417 77.523 152.199 86.1843C187.15 91.3844 209.098 120.762 227.312 148.096C228.303 149.559 229.821 150.587 231.553 150.967C233.284 151.347 235.096 151.051 236.614 150.139V150.139C238.153 149.226 239.276 147.756 239.747 146.037C240.219 144.318 240.002 142.484 239.143 140.921C231.437 126.992 196.079 68.7268 138.11 70.5839C91.9387 72.0528 59.6698 110.784 39.0285 140.65C38.2765 141.742 37.8559 143.026 37.8168 144.349C37.7777 145.672 38.1217 146.979 38.8078 148.113V148.113Z" fill="#717986"/>
<path d="M10.6633 105.887L10.85 106.191C11.4378 107.171 12.2612 107.99 13.246 108.575C14.2309 109.16 15.3465 109.493 16.4926 109.543C17.6387 109.593 18.7794 109.359 19.8123 108.863C20.8451 108.366 21.7376 107.622 22.4098 106.697C34.6486 89.8137 63.7093 22.2797 138.653 18.3628C192.972 15.5263 234.831 74.0782 253.045 101.362C254.033 102.828 255.552 103.859 257.284 104.239C259.017 104.62 260.831 104.321 262.348 103.405C263.886 102.492 265.008 101.021 265.477 99.3008C265.946 97.5809 265.725 95.7471 264.86 94.1865C257.153 80.2576 202.63 -5.12216 130.861 2.7962C60.0428 10.5964 31.5252 68.6418 10.8839 98.4073C10.1325 99.5027 9.71232 100.789 9.67321 102.115C9.63411 103.44 9.97772 104.749 10.6633 105.887V105.887Z" fill="#717986"/>
<path d="M67.9702 191.435L68.157 191.739C68.7448 192.719 69.5681 193.538 70.553 194.123C71.5379 194.708 72.6535 195.041 73.7996 195.091C74.9457 195.141 76.0864 194.908 77.1192 194.411C78.152 193.914 79.0446 193.17 79.7168 192.246C91.9556 175.362 121.763 142.456 157.801 151.962C175.997 156.756 184.841 165.468 203.055 192.769C204.046 194.232 205.565 195.259 207.298 195.637C209.03 196.014 210.843 195.713 212.357 194.795V194.795C213.895 193.885 215.017 192.417 215.485 190.7C215.954 188.983 215.733 187.152 214.87 185.593C207.163 171.648 184.943 138.218 151.028 136.631C115.381 134.943 88.8152 154.173 68.157 184.023C67.4282 185.116 67.0242 186.391 66.9911 187.702C66.9581 189.014 67.2974 190.307 67.9702 191.435V191.435Z" fill="#747B89"/>
<path d="M41.7444 148.062L41.9311 148.383C42.519 149.363 43.3423 150.182 44.3272 150.767C45.3121 151.352 46.4277 151.685 47.5738 151.735C48.7199 151.785 49.8606 151.552 50.8934 151.055C51.9262 150.558 52.8187 149.814 53.4909 148.889C65.7297 132.006 96.8783 77.4723 155.136 86.1504C190.087 91.3505 212.035 120.728 230.249 148.062C231.242 149.522 232.761 150.547 234.493 150.924C236.224 151.301 238.035 151.002 239.551 150.088V150.088C241.088 149.178 242.211 147.711 242.682 145.995C243.154 144.279 242.938 142.448 242.08 140.887C234.374 126.941 199.032 68.676 141.047 70.5332C94.8753 72.0189 62.6063 110.733 41.9651 140.6C41.2131 141.692 40.7925 142.976 40.7534 144.299C40.7143 145.622 41.0583 146.928 41.7444 148.062Z" fill="#747B89"/>
<path d="M13.6002 105.836L13.8039 106.157C14.3925 107.134 15.2153 107.95 16.1986 108.532C17.1818 109.115 18.295 109.446 19.4385 109.497C20.5819 109.547 21.7201 109.314 22.7511 108.82C23.7822 108.326 24.674 107.585 25.3468 106.664C37.5855 89.7802 66.6462 22.2462 141.59 18.3124C195.909 15.476 237.768 74.0279 255.982 101.328C256.973 102.792 258.492 103.819 260.225 104.196C261.958 104.574 263.77 104.272 265.285 103.355V103.355C266.818 102.442 267.938 100.975 268.41 99.2597C268.881 97.5448 268.667 95.715 267.814 94.153C260.09 80.2072 205.567 -5.15566 133.798 2.74581C62.9797 10.5629 34.4622 68.5914 13.8209 98.3739C13.0689 99.4659 12.6483 100.75 12.6092 102.073C12.5701 103.396 12.9141 104.702 13.6002 105.836V105.836Z" fill="#747B89"/>
<path d="M70.907 191.385L71.0937 191.706C71.6843 192.683 72.5088 193.498 73.4934 194.081C74.4781 194.663 75.5924 194.995 76.7369 195.045C77.8815 195.095 79.0207 194.863 80.053 194.368C81.0854 193.874 81.9787 193.134 82.6534 192.213C94.8922 175.329 124.7 142.423 160.737 151.929C178.934 156.724 187.778 165.436 205.992 192.719C206.982 194.182 208.501 195.21 210.232 195.59C211.964 195.971 213.776 195.674 215.294 194.762V194.762C216.833 193.85 217.955 192.378 218.424 190.658C218.892 188.938 218.671 187.104 217.806 185.544C210.1 171.615 187.897 138.186 153.964 136.582C118.232 134.893 91.7519 154.107 71.1106 183.974C70.3716 185.062 69.9599 186.337 69.9238 187.65C69.8877 188.963 70.2288 190.259 70.907 191.385Z" fill="#767E8B"/>
<path d="M44.681 148.029L44.8847 148.349C45.4719 149.328 46.2948 150.147 47.2791 150.73C48.2634 151.314 49.3782 151.645 50.5232 151.694C51.6682 151.742 52.8074 151.507 53.8381 151.009C54.8688 150.51 55.7587 149.765 56.4275 148.839C68.6663 131.956 99.8149 77.4388 158.089 86.1001C193.023 91.3002 214.971 120.677 233.185 148.012C234.176 149.475 235.694 150.503 237.426 150.883C239.157 151.263 240.97 150.967 242.487 150.055V150.055C244.026 149.142 245.149 147.672 245.62 145.953C246.092 144.234 245.876 142.4 245.017 140.836C237.31 126.907 201.969 68.6425 143.983 70.4997C97.8119 71.9686 65.5429 110.699 44.9017 140.566C44.1497 141.658 43.7291 142.942 43.69 144.265C43.6509 145.588 43.9949 146.895 44.681 148.029V148.029Z" fill="#767E8B"/>
<path d="M16.5365 105.803L16.7402 106.106C17.326 107.086 18.1476 107.906 19.1311 108.491C20.1146 109.077 21.2291 109.409 22.3741 109.46C23.5192 109.51 24.6588 109.276 25.6903 108.779C26.7218 108.282 27.6128 107.538 28.283 106.613C40.5218 89.7295 69.5825 22.1955 144.526 18.2785C198.845 15.4421 240.705 73.994 258.919 101.278C259.907 102.744 261.425 103.775 263.158 104.155C264.89 104.536 266.704 104.237 268.221 103.321C269.759 102.408 270.882 100.937 271.354 99.2186C271.825 97.4997 271.609 95.6659 270.75 94.1023C263.043 80.1734 208.521 -5.20639 136.735 2.71197C65.916 10.5121 37.3985 68.4731 16.7572 98.3231C16.0057 99.4185 15.5855 100.705 15.5464 102.031C15.5073 103.356 15.8509 104.665 16.5365 105.803V105.803Z" fill="#767E8B"/>
<path d="M73.8434 191.351L74.0302 191.655C74.618 192.635 75.4413 193.454 76.4262 194.039C77.4111 194.624 78.5267 194.957 79.6728 195.007C80.8189 195.057 81.9596 194.823 82.9924 194.327C84.0252 193.83 84.9178 193.086 85.59 192.161C97.8287 175.278 127.653 142.372 163.674 151.877C181.871 156.672 190.697 165.384 208.911 192.685C209.902 194.148 211.421 195.175 213.154 195.552C214.887 195.93 216.699 195.628 218.213 194.711V194.711C219.747 193.798 220.867 192.331 221.339 190.616C221.81 188.901 221.596 187.071 220.743 185.509C213.019 171.563 190.816 138.134 156.884 136.547C121.237 134.859 94.6714 154.089 74.0302 183.939C73.2976 185.03 72.8912 186.306 72.8581 187.618C72.8251 188.93 73.1667 190.224 73.8434 191.351V191.351Z" fill="#79808E"/>
<path d="M47.6177 147.978L47.8213 148.299C48.4071 149.278 49.2287 150.098 50.2122 150.683C51.1958 151.269 52.3102 151.602 53.4553 151.652C54.6003 151.702 55.7399 151.468 56.7714 150.971C57.8029 150.474 58.6939 149.73 59.3641 148.805C71.6029 131.922 102.752 77.3879 161.026 86.066C195.977 91.2661 217.908 120.643 236.122 147.978C237.115 149.438 238.635 150.462 240.366 150.839C242.097 151.217 243.908 150.917 245.424 150.004V150.004C246.961 149.094 248.084 147.627 248.556 145.911C249.027 144.195 248.811 142.363 247.953 140.802C240.247 126.857 204.905 68.5916 146.92 70.4488C100.749 71.9346 68.4796 110.648 47.8383 140.515C47.0864 141.607 46.6657 142.891 46.6266 144.214C46.5875 145.537 46.9315 146.844 47.6177 147.978V147.978Z" fill="#79808E"/>
<path d="M19.4734 105.752L19.6771 106.073C20.2657 107.049 21.0885 107.865 22.0717 108.448C23.055 109.031 24.1681 109.362 25.3116 109.412C26.4551 109.463 27.5933 109.23 28.6244 108.736C29.6554 108.241 30.5472 107.5 31.2199 106.579C43.4757 89.696 72.5194 22.162 147.48 18.2282C201.799 15.3917 243.642 73.9437 261.856 101.244C262.849 102.704 264.368 103.729 266.1 104.106C267.831 104.483 269.642 104.184 271.158 103.27V103.27C272.695 102.361 273.817 100.893 274.289 99.1772C274.761 97.4611 274.545 95.6299 273.687 94.0688C265.98 80.123 211.458 -5.23989 139.671 2.66158C68.8529 10.4786 40.3354 68.4228 19.6941 98.2897C18.9421 99.3817 18.5215 100.666 18.4824 101.989C18.4433 103.312 18.7873 104.618 19.4734 105.752Z" fill="#79808E"/>
<path d="M76.7801 191.3L76.9838 191.621C77.5724 192.597 78.3951 193.413 79.3784 193.996C80.3617 194.579 81.4748 194.91 82.6183 194.96C83.7618 195.01 84.8999 194.778 85.931 194.284C86.962 193.789 87.8538 193.048 88.5266 192.127C100.765 175.244 130.59 142.338 166.61 151.843C184.807 156.638 193.634 165.35 211.848 192.634C212.839 194.097 214.357 195.125 216.088 195.505C217.82 195.885 219.632 195.589 221.15 194.677V194.677C222.685 193.761 223.805 192.291 224.277 190.573C224.748 188.855 224.534 187.023 223.679 185.458C215.973 171.53 193.753 138.1 159.82 136.496C124.174 134.808 97.6081 154.021 76.9668 183.888C76.2304 184.978 75.8216 186.254 75.7885 187.567C75.7555 188.88 76.0994 190.175 76.7801 191.3V191.3Z" fill="#7B8390"/>
<path d="M50.5543 147.944L50.7579 148.265C51.3452 149.244 52.168 150.062 53.1523 150.646C54.1366 151.23 55.2514 151.561 56.3964 151.61C57.5414 151.658 58.6806 151.423 59.7113 150.924C60.742 150.426 61.6319 149.68 62.3007 148.755C74.5565 131.871 105.688 77.3545 163.962 86.0157C198.913 91.2158 220.845 120.593 239.059 147.927C240.052 149.391 241.574 150.42 243.308 150.8C245.042 151.18 246.857 150.883 248.378 149.97C249.916 149.058 251.039 147.586 251.507 145.866C251.976 144.146 251.755 142.313 250.89 140.752C243.183 126.823 207.842 68.5582 149.856 70.4154C103.685 71.8842 71.4161 110.615 50.7749 140.482C50.0229 141.574 49.6023 142.858 49.5632 144.181C49.5241 145.504 49.8681 146.81 50.5543 147.944Z" fill="#7B8390"/>
<path d="M22.427 105.718L22.6137 106.039C23.203 107.018 24.0275 107.836 25.0132 108.419C25.9989 109.003 27.1149 109.334 28.2609 109.382C29.407 109.431 30.5472 109.196 31.5792 108.697C32.6112 108.199 33.5026 107.454 34.1735 106.529C46.4123 89.6451 75.456 22.1111 150.416 18.1942C204.736 15.3577 246.578 73.9097 264.792 101.193C265.78 102.66 267.298 103.69 269.031 104.071C270.764 104.451 272.578 104.152 274.094 103.236V103.236C275.633 102.323 276.756 100.853 277.227 99.1342C277.699 97.4153 277.482 95.5815 276.624 94.0179C268.917 80.0891 214.394 -5.29074 142.608 2.62762C71.7895 10.4278 43.272 68.4732 22.6307 98.2388C21.8818 99.3358 21.4646 100.623 21.4285 101.949C21.3924 103.274 21.7389 104.582 22.427 105.718V105.718Z" fill="#7B8390"/>
<path d="M79.7164 191.266L79.9201 191.587C80.5073 192.566 81.3302 193.384 82.3145 193.968C83.2988 194.552 84.4137 194.883 85.5587 194.932C86.7036 194.98 87.8428 194.745 88.8735 194.246C89.9042 193.748 90.794 193.002 91.4629 192.077C103.702 175.193 133.526 142.288 169.547 151.793C187.744 156.588 196.57 165.3 214.784 192.6C215.778 194.06 217.297 195.085 219.028 195.462C220.76 195.839 222.571 195.54 224.086 194.626V194.626C225.624 193.717 226.746 192.249 227.218 190.533C227.69 188.817 227.474 186.986 226.616 185.425C218.909 171.479 196.689 138.05 162.757 136.463C127.11 134.774 100.544 153.988 79.9031 183.838C79.1671 184.931 78.7588 186.21 78.7258 187.525C78.6927 188.84 79.0363 190.138 79.7164 191.266V191.266Z" fill="#7E8693"/>
<path d="M53.5078 147.91L53.6945 148.214C54.2823 149.193 55.1057 150.013 56.0906 150.598C57.0755 151.183 58.1911 151.516 59.3372 151.566C60.4833 151.616 61.6239 151.382 62.6567 150.886C63.6895 150.389 64.5821 149.645 65.2543 148.72C77.4931 131.837 108.625 77.3029 166.899 85.981C201.85 91.1812 223.798 120.558 241.995 147.893C242.992 149.354 244.514 150.379 246.248 150.756C247.982 151.133 249.796 150.833 251.314 149.919C252.852 149.009 253.974 147.541 254.442 145.824C254.911 144.107 254.69 142.275 253.827 140.717C246.12 126.772 210.779 68.5235 152.793 70.3638C106.622 71.8496 74.3528 110.563 53.7115 140.43C52.9626 141.527 52.5454 142.815 52.5093 144.14C52.4732 145.466 52.8197 146.774 53.5078 147.91Z" fill="#7E8693"/>
<path d="M25.3633 105.668L25.5501 105.989C26.1407 106.965 26.9652 107.781 27.9498 108.363C28.9345 108.946 30.0487 109.277 31.1933 109.327C32.3378 109.377 33.4771 109.145 34.5094 108.651C35.5418 108.157 36.4351 107.416 37.1098 106.495C49.3486 89.6116 78.3924 22.0777 153.353 18.1438C207.672 15.3243 249.515 73.8593 267.728 101.16C268.722 102.62 270.241 103.644 271.973 104.022C273.704 104.399 275.515 104.1 277.031 103.186C278.568 102.276 279.69 100.809 280.162 99.0928C280.634 97.3767 280.418 95.5455 279.56 93.9844C271.853 80.0387 217.33 -5.32424 145.544 2.57723C74.7258 10.3943 46.2083 68.4228 25.567 98.2053C24.8176 99.299 24.4 100.584 24.3639 101.907C24.3278 103.23 24.6747 104.535 25.3633 105.668Z" fill="#7E8693"/>
<path d="M82.6533 191.216L82.8571 191.537C83.4457 192.513 84.2684 193.329 85.2516 193.912C86.2349 194.494 87.348 194.826 88.4915 194.876C89.635 194.926 90.7732 194.694 91.8043 194.199C92.8353 193.705 93.7271 192.964 94.3998 192.043C106.656 175.16 136.463 142.254 172.484 151.759C190.68 156.554 199.507 165.266 217.721 192.55C218.712 194.012 220.23 195.04 221.962 195.421C223.693 195.801 225.506 195.504 227.023 194.592V194.592C228.562 193.68 229.685 192.209 230.156 190.49C230.628 188.771 230.411 186.938 229.553 185.374C221.846 171.445 199.626 138.016 165.694 136.412C130.047 134.724 103.481 153.937 82.8401 183.804C82.1036 184.894 81.6948 186.17 81.6618 187.483C81.6287 188.796 81.9726 190.09 82.6533 191.216Z" fill="#808995"/>
<path d="M56.444 147.859L56.6308 148.18C57.2201 149.158 58.0446 149.976 59.0303 150.56C60.016 151.143 61.132 151.474 62.278 151.523C63.4241 151.572 64.5643 151.336 65.5963 150.838C66.6283 150.34 67.5197 149.595 68.1906 148.669C80.4294 131.786 111.561 77.2689 169.835 85.9301C204.786 91.1303 226.735 120.508 244.948 147.842C245.939 149.305 247.457 150.333 249.189 150.713C250.92 151.093 252.733 150.797 254.251 149.885V149.885C255.789 148.972 256.911 147.501 257.38 145.781C257.849 144.061 257.627 142.227 256.763 140.666C249.056 126.738 213.715 68.4726 155.729 70.3298C109.558 71.7987 77.289 110.529 56.6478 140.396C55.8984 141.49 55.4808 142.775 55.4447 144.098C55.4086 145.421 55.7554 146.726 56.444 147.859V147.859Z" fill="#808995"/>
<path d="M28.3005 105.634L28.4873 105.955C29.0766 106.933 29.9011 107.751 30.8868 108.335C31.8725 108.919 32.9884 109.249 34.1345 109.298C35.2806 109.347 36.4208 109.111 37.4528 108.613C38.4848 108.115 39.3762 107.37 40.0471 106.444C52.2858 89.5607 81.3296 22.0268 156.29 18.1098C210.609 15.2734 252.452 73.8253 270.666 101.109C271.654 102.575 273.172 103.606 274.905 103.986C276.637 104.367 278.451 104.068 279.968 103.152C281.506 102.239 282.629 100.769 283.101 99.0499C283.572 97.331 283.356 95.4971 282.497 93.9335C274.79 80.0047 220.268 -5.37509 148.482 2.54327C77.663 10.3434 49.1455 68.3044 28.5042 98.1713C27.7548 99.265 27.3372 100.55 27.3011 101.873C27.265 103.196 27.6119 104.501 28.3005 105.634V105.634Z" fill="#808995"/>
<path d="M85.5391 191.182L85.7258 191.503C86.3151 192.482 87.1396 193.3 88.1253 193.883C89.111 194.467 90.227 194.798 91.3731 194.846C92.5191 194.895 93.6593 194.66 94.6913 194.161C95.7233 193.663 96.6148 192.918 97.2856 191.993C109.524 175.109 139.332 142.203 175.369 151.709C193.566 156.504 202.393 165.215 220.607 192.516C221.6 193.976 223.12 195.001 224.851 195.378C226.582 195.755 228.393 195.456 229.909 194.542V194.542C231.446 193.632 232.569 192.165 233.04 190.449C233.512 188.733 233.296 186.902 232.438 185.341C224.732 171.395 202.512 137.966 168.579 136.378C132.933 134.69 106.367 153.903 85.7258 183.77C84.9893 184.86 84.5806 186.136 84.5475 187.449C84.5145 188.762 84.8584 190.057 85.5391 191.182V191.182Z" fill="#838C98"/>
<path d="M59.381 147.825L59.5678 148.129C60.1556 149.109 60.9789 149.928 61.9638 150.513C62.9487 151.099 64.0643 151.431 65.2104 151.481C66.3565 151.532 67.4971 151.298 68.53 150.801C69.5628 150.304 70.4554 149.56 71.1275 148.636C83.3663 131.752 114.498 77.2186 172.772 85.8967C207.723 91.0968 229.672 120.474 247.885 147.808C248.876 149.272 250.395 150.299 252.128 150.676C253.861 151.054 255.673 150.752 257.188 149.834V149.834C258.725 148.925 259.847 147.456 260.316 145.739C260.784 144.022 260.564 142.191 259.7 140.633C251.993 126.687 216.652 68.4392 158.666 70.2795C112.495 71.7652 80.226 110.479 59.5847 140.346C58.8358 141.443 58.4186 142.73 58.3825 144.056C58.3464 145.382 58.6929 146.69 59.381 147.825V147.825Z" fill="#838C98"/>
<path d="M31.2202 105.583L31.4069 105.904C31.9976 106.881 32.822 107.696 33.8067 108.279C34.7914 108.861 35.9057 109.193 37.0502 109.243C38.1948 109.293 39.334 109.06 40.3663 108.566C41.3987 108.072 42.2921 107.332 42.9668 106.411C55.2055 89.5272 84.2662 21.9933 159.21 18.0595C213.529 15.2399 255.371 73.7749 273.585 101.076C274.579 102.535 276.097 103.56 277.827 103.94C279.558 104.32 281.369 104.026 282.887 103.118C284.429 102.209 285.555 100.738 286.027 99.0181C286.499 97.298 286.28 95.4627 285.417 93.9001C277.71 79.9543 223.187 -5.40859 151.401 2.49288C80.5827 10.3099 52.0822 68.254 31.4239 98.1209C30.6785 99.2162 30.2633 100.5 30.2272 101.823C30.1911 103.145 30.5356 104.45 31.2202 105.583Z" fill="#838C98"/>
<path d="M88.5433 191.131L88.73 191.452C89.3207 192.429 90.1451 193.244 91.1298 193.827C92.1144 194.409 93.2287 194.74 94.3732 194.791C95.5178 194.841 96.6571 194.608 97.6894 194.114C98.7217 193.62 99.6151 192.88 100.29 191.959C112.529 175.075 142.336 142.169 178.373 151.675C196.57 156.47 205.397 165.181 223.611 192.465C224.602 193.928 226.12 194.956 227.852 195.336C229.583 195.716 231.395 195.42 232.913 194.508V194.508C234.452 193.595 235.575 192.125 236.046 190.406C236.518 188.687 236.301 186.853 235.442 185.29C227.736 171.361 205.516 137.932 171.584 136.328C135.937 134.639 109.371 153.853 88.73 183.719C87.9935 184.809 87.5848 186.086 87.5517 187.398C87.5186 188.711 87.8626 190.006 88.5433 191.131Z" fill="#868F9B"/>
<path d="M62.3178 147.708L62.5045 148.028C63.0938 149.007 63.9183 149.825 64.904 150.409C65.8897 150.992 67.0056 151.323 68.1517 151.372C69.2977 151.42 70.438 151.185 71.47 150.687C72.502 150.189 73.3934 149.443 74.0643 148.518C86.303 131.634 117.435 77.1177 175.709 85.7789C210.66 90.979 232.608 120.356 250.822 147.691C251.813 149.153 253.331 150.181 255.063 150.562C256.794 150.942 258.606 150.645 260.124 149.734V149.734C261.663 148.821 262.785 147.35 263.257 145.631C263.729 143.913 263.512 142.079 262.653 140.515C254.93 126.586 219.589 68.3214 161.62 70.1786C115.432 71.6474 83.1627 110.378 62.5215 140.245C61.776 141.34 61.3608 142.625 61.3247 143.947C61.2886 145.269 61.6332 146.574 62.3178 147.708V147.708Z" fill="#868F9B"/>
<path d="M34.1736 105.499L34.3603 105.819C34.9496 106.798 35.7741 107.616 36.7598 108.2C37.7455 108.783 38.8615 109.114 40.0076 109.163C41.1536 109.211 42.2938 108.976 43.3258 108.478C44.3578 107.98 45.2493 107.235 45.9201 106.309C58.1589 89.4256 87.2196 21.8917 162.163 17.9747C216.482 15.1383 258.342 73.6902 276.539 100.974C277.53 102.441 279.051 103.472 280.787 103.853C282.522 104.233 284.338 103.934 285.858 103.017V103.017C287.397 102.104 288.519 100.633 288.987 98.9127C289.456 97.1928 289.235 95.3591 288.37 93.7985C280.664 79.8696 226.141 -5.51022 154.355 2.40813C83.5361 10.2083 55.0355 68.1693 34.3773 98.0362C33.6318 99.1314 33.2166 100.416 33.1805 101.738C33.1444 103.06 33.489 104.365 34.1736 105.499Z" fill="#868F9B"/>
<path d="M91.4805 191.098L91.6672 191.419C92.2565 192.398 93.0811 193.216 94.0667 193.799C95.0524 194.383 96.1684 194.714 97.3145 194.762C98.4605 194.811 99.6007 194.575 100.633 194.077C101.665 193.579 102.556 192.834 103.227 191.908C115.466 175.025 145.273 142.119 181.311 151.624C199.508 156.419 208.334 165.131 226.548 192.432C227.542 193.892 229.061 194.916 230.792 195.293C232.524 195.67 234.335 195.371 235.85 194.458V194.458C237.391 193.551 238.516 192.084 238.988 190.366C239.46 188.649 239.242 186.816 238.38 185.256C230.673 171.31 208.453 137.881 174.538 136.294C138.806 134.606 112.308 153.819 91.6672 183.686C90.9307 184.776 90.522 186.052 90.4889 187.365C90.4559 188.678 90.7998 189.973 91.4805 191.098V191.098Z" fill="#88919E"/>
<path d="M65.2541 147.708L65.4408 148.011C66.0286 148.991 66.852 149.811 67.8368 150.396C68.8217 150.981 69.9373 151.313 71.0834 151.364C72.2295 151.414 73.3702 151.18 74.4031 150.683C75.4359 150.187 76.3284 149.443 77.0006 148.518C89.2394 131.634 120.388 77.1008 178.645 85.7789C213.596 90.979 235.545 120.356 253.758 147.691C254.749 149.154 256.269 150.181 258.001 150.559C259.734 150.936 261.546 150.634 263.061 149.717V149.717C264.594 148.804 265.714 147.337 266.186 145.622C266.657 143.907 266.444 142.077 265.59 140.515C257.866 126.569 222.525 68.3214 164.556 70.1617C118.368 71.6474 86.116 110.361 65.4578 140.228C64.7128 141.327 64.298 142.614 64.2619 143.938C64.2259 145.263 64.57 146.57 65.2541 147.708V147.708Z" fill="#88919E"/>
<path d="M37.1103 105.499L37.297 105.82C37.8877 106.796 38.7121 107.612 39.6968 108.195C40.6814 108.777 41.7957 109.108 42.9403 109.158C44.0849 109.209 45.2241 108.976 46.2564 108.482C47.2887 107.988 48.1821 107.247 48.8568 106.326C61.0956 89.443 90.1563 21.9091 165.1 17.9752C219.419 15.1557 261.279 73.6907 279.492 100.991C280.486 102.451 282.004 103.476 283.734 103.856C285.465 104.236 287.276 103.942 288.795 103.034V103.034C290.33 102.119 291.449 100.647 291.918 98.9284C292.386 97.2097 292.167 95.3774 291.307 93.8158C283.6 79.8701 229.077 -5.49282 157.207 2.40866C86.3879 10.2257 57.8874 68.1698 37.2291 98.0367C36.4966 99.14 36.0962 100.429 36.0751 101.751C36.0541 103.073 36.4132 104.373 37.1103 105.499V105.499Z" fill="#88919E"/>
<path d="M94.4165 191.047L94.6032 191.368C95.1938 192.344 96.0183 193.16 97.0029 193.743C97.9876 194.325 99.1019 194.656 100.246 194.706C101.391 194.757 102.53 194.524 103.563 194.03C104.595 193.536 105.488 192.795 106.163 191.874C118.402 174.991 148.209 142.085 184.247 151.59C202.444 156.385 211.287 165.097 229.484 192.381C230.475 193.848 231.997 194.879 233.732 195.26C235.468 195.64 237.284 195.341 238.803 194.424V194.424C240.342 193.511 241.464 192.04 241.933 190.32C242.402 188.6 242.18 186.766 241.316 185.205C233.609 171.277 211.389 137.932 177.474 136.243C141.742 134.555 115.244 153.768 94.6032 183.635C93.8706 184.727 93.4642 186.002 93.4311 187.314C93.3981 188.626 93.7398 189.921 94.4165 191.047V191.047Z" fill="#8B94A0"/>
<path d="M68.191 147.708L68.3778 148.028C68.9671 149.007 69.7916 149.825 70.7773 150.409C71.7629 150.992 72.8789 151.323 74.025 151.372C75.171 151.42 76.3113 151.185 77.3433 150.687C78.3753 150.189 79.2667 149.443 79.9375 148.518C92.1763 131.634 123.325 77.1177 181.582 85.7789C216.533 90.979 238.481 120.356 256.695 147.691C257.683 149.157 259.202 150.187 260.934 150.568C262.667 150.949 264.481 150.65 265.998 149.734C267.536 148.821 268.659 147.35 269.13 145.631C269.602 143.913 269.386 142.079 268.527 140.515C260.82 126.586 225.462 68.3214 167.493 70.1786C121.305 71.6474 89.0529 110.378 68.3947 140.245C67.6492 141.34 67.234 142.625 67.1979 143.947C67.1619 145.269 67.5064 146.574 68.191 147.708V147.708Z" fill="#8B94A0"/>
<path d="M40.0465 105.499L40.2332 105.819C40.8225 106.798 41.647 107.616 42.6327 108.2C43.6183 108.783 44.7343 109.114 45.8804 109.163C47.0264 109.211 48.1667 108.976 49.1987 108.478C50.2307 107.98 51.1221 107.235 51.7929 106.309C64.0317 89.4256 93.0925 21.8917 168.036 17.9747C222.355 15.1383 264.215 73.6902 282.429 100.974C283.416 102.44 284.935 103.471 286.668 103.851C288.4 104.232 290.214 103.933 291.731 103.017V103.017C293.269 102.104 294.392 100.633 294.86 98.9127C295.329 97.1928 295.108 95.3591 294.243 93.7985C286.536 79.8696 232.014 -5.51022 160.228 2.40813C89.4259 10.2083 60.9084 68.2537 40.2671 98.0362C39.5151 99.1282 39.0945 100.412 39.0554 101.735C39.0163 103.058 39.3603 104.365 40.0465 105.499Z" fill="#8B94A0"/>
<path d="M97.4212 191.014L97.6079 191.334C98.1972 192.313 99.0218 193.131 100.007 193.715C100.993 194.298 102.109 194.629 103.255 194.678C104.401 194.726 105.541 194.491 106.573 193.993C107.605 193.495 108.497 192.749 109.168 191.824C121.407 174.941 151.214 142.035 187.251 151.54C205.448 156.352 214.292 165.047 232.506 192.347C233.497 193.811 235.016 194.838 236.749 195.215C238.481 195.593 240.293 195.291 241.808 194.373C243.346 193.464 244.468 191.995 244.936 190.278C245.405 188.561 245.184 186.73 244.32 185.172C236.614 171.226 214.394 137.797 180.479 136.21C144.832 134.521 118.266 153.735 97.6079 183.602C96.8753 184.693 96.469 185.969 96.4359 187.281C96.4029 188.593 96.7445 189.887 97.4212 191.014Z" fill="#8E98A3"/>
<path d="M71.1274 147.707L71.3141 148.011C71.9019 148.991 72.7253 149.811 73.7101 150.396C74.695 150.981 75.8106 151.313 76.9567 151.364C78.1028 151.414 79.2435 151.18 80.2763 150.683C81.3091 150.187 82.2017 149.443 82.8738 148.518C95.1126 131.634 126.261 77.1008 184.518 85.7789C219.469 90.979 241.418 120.356 259.632 147.691C260.625 149.151 262.144 150.175 263.876 150.552C265.607 150.929 267.418 150.63 268.934 149.717V149.717C270.471 148.807 271.594 147.34 272.065 145.623C272.537 143.907 272.321 142.076 271.463 140.515C263.773 126.519 228.398 68.3551 170.413 70.0435C124.241 71.5292 91.9723 110.243 71.3311 140.11C70.5578 141.219 70.1266 142.529 70.0904 143.879C70.0543 145.228 70.4146 146.559 71.1274 147.707Z" fill="#8E98A3"/>
<path d="M42.9836 105.499L43.1704 105.82C43.761 106.796 44.5854 107.612 45.5701 108.195C46.5547 108.777 47.6691 109.108 48.8136 109.158C49.9582 109.209 51.0974 108.976 52.1298 108.482C53.1621 107.988 54.0555 107.247 54.7302 106.326C66.9689 89.443 96.0296 21.9091 170.973 17.9752C225.292 15.1557 267.152 73.6907 285.366 100.991C286.359 102.451 287.877 103.476 289.608 103.856C291.338 104.236 293.149 103.942 294.668 103.034V103.034C296.203 102.118 297.323 100.648 297.794 98.9304C298.266 97.2127 298.052 95.3803 297.197 93.8158C289.474 79.8701 234.951 -5.49282 163.182 2.40866C92.3631 10.2257 63.8456 68.2542 43.2043 98.0367C42.4523 99.1287 42.0318 100.413 41.9926 101.736C41.9535 103.059 42.2975 104.365 42.9836 105.499V105.499Z" fill="#8E98A3"/>
<path d="M100.29 190.963L100.476 191.284C101.067 192.26 101.891 193.076 102.876 193.658C103.861 194.241 104.975 194.572 106.12 194.622C107.264 194.672 108.403 194.44 109.436 193.946C110.468 193.452 111.361 192.711 112.036 191.79C124.275 174.907 154.083 142.001 190.12 151.506C208.317 156.301 217.161 165.013 235.375 192.297C236.362 193.763 237.881 194.793 239.614 195.174C241.346 195.554 243.16 195.256 244.677 194.339C246.215 193.427 247.338 191.955 247.806 190.235C248.275 188.516 248.054 186.682 247.189 185.121C239.482 171.192 217.263 137.763 183.347 136.159C147.615 134.471 121.135 153.684 100.476 183.551C99.7438 184.642 99.3374 185.918 99.3043 187.23C99.2713 188.542 99.613 189.836 100.29 190.963V190.963Z" fill="#919BA6"/>
<path d="M74.0638 147.606L74.2506 147.927C74.8399 148.905 75.6644 149.723 76.6501 150.307C77.6358 150.891 78.7517 151.221 79.8978 151.27C81.0438 151.319 82.1841 151.083 83.2161 150.585C84.2481 150.087 85.1395 149.342 85.8103 148.416C98.0491 131.533 129.198 77.016 187.455 85.6772C222.406 90.8773 244.354 120.255 262.568 147.589C263.556 149.055 265.074 150.086 266.807 150.466C268.54 150.847 270.354 150.548 271.87 149.632V149.632C273.409 148.719 274.532 147.249 275.003 145.53C275.475 143.811 275.258 141.977 274.4 140.413C266.693 126.485 231.352 68.2197 173.366 70.0769C127.195 71.5457 94.9258 110.276 74.2845 140.143C73.5325 141.235 73.1119 142.519 73.0728 143.842C73.0337 145.165 73.3777 146.472 74.0638 147.606V147.606Z" fill="#919BA6"/>
<path d="M45.9203 105.381L46.124 105.702C46.7112 106.681 47.534 107.499 48.5183 108.083C49.5026 108.666 50.6175 108.998 51.7625 109.046C52.9075 109.095 54.0466 108.859 55.0773 108.361C56.1081 107.862 56.9979 107.117 57.6668 106.191C69.9055 89.3078 98.9663 21.7739 173.91 17.8569C228.229 15.0205 270.089 73.5724 288.302 100.856C289.29 102.322 290.809 103.353 292.542 103.734C294.274 104.114 296.088 103.815 297.605 102.899C299.143 101.986 300.266 100.516 300.737 98.797C301.209 97.0781 300.993 95.2442 300.134 93.6806C292.41 79.7518 237.904 -5.62802 166.118 2.29034C95.2998 10.0905 66.7822 68.0515 46.141 97.9184C45.389 99.0104 44.9684 100.294 44.9292 101.617C44.8901 102.94 45.2341 104.247 45.9203 105.381V105.381Z" fill="#919BA6"/>
<path d="M103.227 190.929L103.414 191.25C104.003 192.229 104.828 193.047 105.813 193.63C106.799 194.214 107.915 194.545 109.061 194.593C110.207 194.642 111.347 194.407 112.379 193.909C113.411 193.41 114.303 192.665 114.973 191.74C127.212 174.856 157.02 141.95 193.057 151.456C211.254 156.268 220.098 164.963 238.312 192.263C239.302 193.727 240.822 194.754 242.554 195.131C244.287 195.508 246.099 195.207 247.614 194.289V194.289C249.148 193.376 250.268 191.909 250.739 190.194C251.21 188.479 250.997 186.65 250.143 185.088C242.42 171.142 220.217 137.713 186.284 136.126C150.553 134.437 124.072 153.651 103.431 183.517C102.692 184.606 102.28 185.881 102.244 187.194C102.208 188.507 102.549 189.803 103.227 190.929Z" fill="#949EA9"/>
<path d="M77.0516 147.572L77.2553 147.876C77.841 148.856 78.6627 149.676 79.6462 150.261C80.6297 150.846 81.7442 151.179 82.8892 151.229C84.0342 151.28 85.1738 151.046 86.2054 150.549C87.2369 150.052 88.1279 149.308 88.7981 148.383C101.037 131.499 132.186 76.9656 190.46 85.6437C225.394 90.8438 247.342 120.221 265.556 147.555C266.549 149.016 268.069 150.04 269.8 150.417C271.531 150.794 273.342 150.495 274.858 149.581V149.581C276.395 148.672 277.518 147.205 277.99 145.488C278.461 143.772 278.245 141.941 277.387 140.38C269.681 126.434 234.339 68.1862 176.354 70.0265C130.183 71.5123 97.9136 110.226 77.2723 140.093C76.5208 141.188 76.1006 142.475 76.0615 143.801C76.0224 145.126 76.366 146.435 77.0516 147.572V147.572Z" fill="#949EA9"/>
<path d="M48.8569 105.329L49.0606 105.65C49.6492 106.626 50.4719 107.443 51.4552 108.025C52.4384 108.608 53.5516 108.939 54.6951 108.989C55.8385 109.04 56.9767 108.807 58.0078 108.313C59.0388 107.818 59.9306 107.078 60.6034 106.157C72.8421 89.2731 101.903 21.7392 176.863 17.8053C231.182 14.9858 273.025 73.5208 291.239 100.821C292.232 102.281 293.75 103.306 295.481 103.686C297.211 104.066 299.022 103.772 300.541 102.864V102.864C302.076 101.948 303.196 100.478 303.668 98.7605C304.139 97.0428 303.925 95.2105 303.07 93.646C295.364 79.7002 240.841 -5.66274 169.055 2.23873C98.2364 10.0558 69.7188 67.9999 49.0775 97.8668C48.3255 98.9589 47.905 100.243 47.8659 101.566C47.8267 102.889 48.1707 104.195 48.8569 105.329Z" fill="#949EA9"/>
<path d="M106.164 190.878L106.35 191.199C106.941 192.176 107.765 192.991 108.75 193.574C109.735 194.156 110.849 194.488 111.994 194.538C113.138 194.588 114.277 194.356 115.31 193.861C116.342 193.367 117.235 192.627 117.91 191.706C130.149 174.822 159.973 141.916 195.994 151.422C214.191 156.217 223.018 164.929 241.231 192.212C242.219 193.678 243.738 194.709 245.471 195.09C247.203 195.47 249.017 195.171 250.534 194.255C252.072 193.342 253.195 191.872 253.666 190.153C254.138 188.434 253.922 186.6 253.063 185.037C245.339 171.108 223.136 137.679 189.204 136.075C153.557 134.386 126.992 153.6 106.35 183.467C105.614 184.557 105.205 185.833 105.172 187.146C105.139 188.458 105.483 189.753 106.164 190.878V190.878Z" fill="#97A1AC"/>
<path d="M79.9377 147.522L80.1414 147.842C80.7286 148.821 81.5514 149.639 82.5357 150.223C83.52 150.807 84.6349 151.138 85.7799 151.187C86.9249 151.235 88.064 151 89.0947 150.501C90.1254 150.003 91.0153 149.258 91.6842 148.332C103.923 131.449 135.072 76.9317 193.346 85.593C228.297 90.7931 250.228 120.17 268.442 147.505C269.43 148.971 270.948 150.002 272.681 150.382C274.414 150.763 276.227 150.464 277.744 149.548V149.548C279.283 148.635 280.405 147.164 280.877 145.446C281.349 143.727 281.132 141.893 280.273 140.329C272.567 126.4 237.226 68.1355 179.24 69.9926C133.069 71.4615 100.8 110.192 80.1583 140.059C79.4064 141.151 78.9858 142.435 78.9467 143.758C78.9075 145.081 79.2516 146.388 79.9377 147.522Z" fill="#97A1AC"/>
<path d="M51.7929 105.297L51.9966 105.617C52.5838 106.596 53.4066 107.415 54.3909 107.998C55.3752 108.582 56.4901 108.913 57.6351 108.962C58.7801 109.01 59.9192 108.775 60.95 108.277C61.9807 107.778 62.8705 107.033 63.5394 106.107C75.7952 89.2235 104.839 21.6896 179.799 17.7727C234.118 14.9362 275.961 73.4882 294.175 100.772C295.163 102.238 296.681 103.269 298.414 103.649C300.147 104.03 301.96 103.731 303.477 102.815V102.815C305.016 101.902 306.138 100.432 306.61 98.7127C307.082 96.9938 306.865 95.16 306.006 93.5964C298.3 79.6675 243.777 -5.71225 171.991 2.20611C101.172 10.0063 72.6548 68.0517 52.0136 97.8341C51.2616 98.9262 50.841 100.21 50.8018 101.533C50.7627 102.856 51.1067 104.163 51.7929 105.297Z" fill="#97A1AC"/>
<path d="M109.1 190.845L109.304 191.166C109.891 192.145 110.714 192.963 111.698 193.547C112.682 194.131 113.797 194.462 114.942 194.51C116.087 194.559 117.227 194.323 118.257 193.825C119.288 193.327 120.178 192.581 120.847 191.655C133.085 174.772 162.91 141.866 198.93 151.371C217.127 156.183 225.954 164.878 244.168 192.179C245.161 193.639 246.681 194.663 248.412 195.04C250.143 195.418 251.954 195.118 253.47 194.205V194.205C255.004 193.292 256.124 191.825 256.595 190.11C257.067 188.395 256.853 186.565 255.999 185.003C248.293 171.058 226.073 137.73 192.14 136.041C156.494 134.353 129.928 153.566 109.287 183.433C108.55 184.523 108.142 185.799 108.109 187.112C108.076 188.425 108.419 189.72 109.1 190.845V190.845Z" fill="#9AA5AF"/>
<path d="M82.8739 147.488L83.0776 147.792C83.6634 148.772 84.485 149.591 85.4685 150.177C86.452 150.762 87.5665 151.095 88.7115 151.145C89.8566 151.195 90.9962 150.961 92.0278 150.465C93.0593 149.968 93.9503 149.223 94.6205 148.298C106.876 131.415 138.008 76.8813 196.282 85.5594C231.233 90.7595 253.164 120.137 271.378 147.471C272.375 148.932 273.897 149.957 275.631 150.334C277.365 150.711 279.179 150.412 280.697 149.497V149.497C282.235 148.588 283.357 147.119 283.826 145.402C284.294 143.685 284.074 141.854 283.21 140.296C275.503 126.35 240.162 68.1019 182.176 69.9422C136.005 71.4279 103.736 110.142 83.0946 140.009C82.3431 141.104 81.923 142.391 81.8839 143.716C81.8448 145.042 82.1883 146.351 82.8739 147.488V147.488Z" fill="#9AA5AF"/>
<path d="M54.7467 105.245L54.9334 105.566C55.5213 106.546 56.3446 107.365 57.3295 107.95C58.3144 108.535 59.43 108.868 60.576 108.918C61.7221 108.968 62.8629 108.734 63.8957 108.238C64.9285 107.741 65.821 106.997 66.4932 106.072C78.732 89.1887 107.776 21.6547 182.736 17.7209C237.055 14.9013 278.898 73.4364 297.112 100.737C298.105 102.196 299.623 103.222 301.354 103.602C303.084 103.982 304.895 103.688 306.414 102.78V102.78C307.952 101.867 309.075 100.397 309.547 98.6778C310.018 96.9589 309.802 95.1251 308.943 93.5615C301.237 79.6326 246.714 -5.74718 174.928 2.15429C104.109 9.97134 75.5917 67.9999 54.9504 97.7823C54.201 98.876 53.7834 100.161 53.7473 101.484C53.7112 102.807 54.0581 104.112 54.7467 105.245V105.245Z" fill="#9AA5AF"/>
<path d="M112.037 190.794L112.24 191.115C112.826 192.095 113.648 192.914 114.631 193.5C115.615 194.085 116.729 194.418 117.874 194.468C119.019 194.518 120.159 194.285 121.191 193.788C122.222 193.291 123.113 192.546 123.783 191.622C136.022 174.738 165.847 141.832 201.867 151.337C220.064 156.132 228.891 164.844 247.105 192.128C248.093 193.594 249.611 194.625 251.344 195.005C253.076 195.386 254.89 195.087 256.407 194.171V194.171C257.945 193.258 259.068 191.788 259.54 190.069C260.011 188.35 259.795 186.516 258.936 184.953C251.229 171.024 229.01 137.594 195.077 135.99C159.43 134.302 132.865 153.515 112.223 183.382C111.487 184.472 111.078 185.748 111.045 187.061C111.012 188.374 111.356 189.669 112.037 190.794V190.794Z" fill="#9DA8B3"/>
<path d="M85.8278 147.438L86.0145 147.759C86.6038 148.737 87.4283 149.555 88.414 150.139C89.3997 150.722 90.5156 151.053 91.6617 151.102C92.8077 151.151 93.948 150.915 94.98 150.417C96.012 149.919 96.9034 149.174 97.5742 148.248C109.813 131.365 140.945 76.8479 199.219 85.5091C234.17 90.7093 256.118 120.086 274.315 147.421C275.316 148.877 276.843 149.894 278.577 150.262C280.312 150.63 282.123 150.32 283.634 149.396V149.396C285.173 148.484 286.295 147.012 286.764 145.292C287.232 143.572 287.011 141.739 286.146 140.178C278.44 126.249 243.099 67.9841 185.113 69.8413C138.942 71.3101 106.673 110.041 86.0315 139.908C85.2681 141.008 84.8425 142.306 84.8064 143.643C84.7702 144.979 85.1251 146.298 85.8278 147.438Z" fill="#9DA8B3"/>
<path d="M57.6833 105.211L57.8701 105.532C58.4594 106.511 59.2839 107.329 60.2696 107.912C61.2553 108.496 62.3713 108.827 63.5173 108.875C64.6634 108.924 65.8036 108.688 66.8356 108.19C67.8676 107.692 68.759 106.947 69.4299 106.021C81.6686 89.138 110.712 21.6041 185.673 17.6871C239.992 14.8507 281.835 73.4026 300.048 100.686C301.036 102.152 302.555 103.183 304.287 103.564C306.02 103.944 307.834 103.645 309.351 102.729C310.889 101.816 312.012 100.346 312.483 98.6271C312.955 96.9082 312.739 95.0744 311.88 93.5108C304.173 79.5819 249.651 -5.79782 177.864 2.12054C107.046 9.92071 78.5283 67.8817 57.887 97.7486C57.1376 98.8422 56.72 100.127 56.6839 101.45C56.6478 102.773 56.9947 104.079 57.6833 105.211V105.211Z" fill="#9DA8B3"/>
<path d="M114.973 190.76L115.177 191.081C115.764 192.06 116.587 192.878 117.571 193.462C118.555 194.046 119.67 194.377 120.815 194.425C121.96 194.474 123.099 194.238 124.13 193.74C125.161 193.242 126.051 192.496 126.719 191.57C138.975 174.687 168.783 141.781 204.803 151.286C223 156.098 231.827 164.793 250.041 192.094C251.034 193.554 252.554 194.578 254.285 194.955C256.016 195.333 257.827 195.033 259.343 194.12V194.12C260.904 193.215 262.046 191.738 262.525 190.005C263.005 188.273 262.782 186.422 261.906 184.851C254.2 170.905 231.98 137.493 198.047 135.889C162.4 134.2 135.835 153.414 115.194 183.281C114.438 184.374 114.016 185.662 113.976 186.988C113.937 188.314 114.283 189.624 114.973 190.76V190.76Z" fill="#A1ACB6"/>
<path d="M88.7645 147.404L88.9512 147.708C89.539 148.688 90.3623 149.507 91.3472 150.092C92.3321 150.677 93.4477 151.01 94.5938 151.06C95.7399 151.11 96.8806 150.876 97.9134 150.38C98.9462 149.883 99.8388 149.139 100.511 148.214C112.75 131.331 143.881 76.7971 202.156 85.4752C237.107 90.6753 259.055 120.053 277.269 147.387C278.262 148.846 279.78 149.872 281.511 150.252C283.241 150.632 285.052 150.338 286.571 149.43V149.43C288.106 148.514 289.226 147.043 289.694 145.324C290.163 143.605 289.944 141.773 289.083 140.211C281.377 126.266 246.035 68.0177 188.05 69.858C141.878 71.3437 109.609 110.058 88.9681 139.924C88.2192 141.022 87.8021 142.309 87.766 143.634C87.7299 144.96 88.0764 146.268 88.7645 147.404Z" fill="#A1ACB6"/>
<path d="M60.62 105.161L60.8067 105.481C61.3945 106.461 62.2178 107.281 63.2027 107.866C64.1876 108.451 65.3032 108.783 66.4493 108.834C67.5954 108.884 68.7361 108.65 69.7689 108.153C70.8017 107.657 71.6943 106.913 72.3664 105.988C84.6052 89.1044 113.649 21.5705 188.609 17.6366C242.928 14.8171 284.771 73.3521 302.985 100.653C303.978 102.112 305.497 103.138 307.227 103.518C308.957 103.898 310.768 103.603 312.287 102.696V102.696C313.826 101.783 314.949 100.312 315.42 98.5935C315.892 96.8746 315.675 95.0408 314.816 93.4772C307.11 79.5484 252.587 -5.83141 180.801 2.07006C109.982 9.88711 81.4649 67.8312 60.8236 97.6981C60.0742 98.7918 59.6566 100.077 59.6205 101.4C59.5844 102.723 59.9313 104.028 60.62 105.161V105.161Z" fill="#A1ACB6"/>
<path d="M117.926 190.709L118.113 191.03C118.701 192.01 119.524 192.829 120.509 193.414C121.494 194 122.61 194.332 123.756 194.382C124.902 194.433 126.043 194.199 127.075 193.702C128.108 193.205 129.001 192.461 129.673 191.537C141.912 174.653 171.719 141.747 207.757 151.253C225.954 156.048 234.781 164.76 252.994 192.043C253.982 193.509 255.501 194.54 257.234 194.921C258.966 195.301 260.78 195.002 262.297 194.086V194.086C263.835 193.173 264.958 191.703 265.43 189.984C265.901 188.265 265.685 186.431 264.826 184.868C257.136 170.939 234.916 137.577 200.967 135.889C165.32 134.2 138.755 153.414 118.113 183.281C117.373 184.372 116.963 185.652 116.93 186.968C116.896 188.284 117.242 189.582 117.926 190.709V190.709Z" fill="#A5B0BA"/>
<path d="M91.7007 147.353L91.8874 147.674C92.4767 148.653 93.3013 149.47 94.287 150.054C95.2726 150.638 96.3886 150.969 97.5347 151.017C98.6807 151.066 99.821 150.83 100.853 150.332C101.885 149.834 102.776 149.089 103.447 148.163C115.686 131.28 146.818 76.763 205.092 85.4243C240.043 90.6244 261.991 120.002 280.205 147.336C281.193 148.802 282.711 149.833 284.444 150.213C286.177 150.594 287.991 150.295 289.507 149.379C291.046 148.466 292.168 146.995 292.637 145.275C293.106 143.555 292.884 141.721 292.02 140.161C284.313 126.232 248.972 67.9668 190.986 69.8239C144.815 71.2928 112.546 110.024 91.9044 139.89C91.155 140.984 90.7374 142.269 90.7013 143.592C90.6652 144.915 91.0121 146.22 91.7007 147.353V147.353Z" fill="#A5B0BA"/>
<path d="M63.557 105.127L63.7438 105.448C64.3331 106.426 65.1576 107.244 66.1433 107.828C67.129 108.411 68.2449 108.742 69.391 108.791C70.537 108.839 71.6773 108.604 72.7093 108.106C73.7413 107.608 74.6327 106.863 75.3035 105.937C87.5423 89.0537 116.603 21.5197 191.546 17.6028C245.866 14.7663 287.708 73.3183 305.922 100.602C306.91 102.068 308.428 103.099 310.161 103.479C311.894 103.86 313.708 103.561 315.224 102.645C316.765 101.738 317.89 100.271 318.362 98.5535C318.834 96.8361 318.616 95.0035 317.753 93.4433C310.047 79.4976 255.524 -5.88217 183.738 2.03619C112.92 9.83635 84.419 67.7973 63.7608 97.6642C63.0153 98.7595 62.6 100.044 62.564 101.366C62.5279 102.688 62.8724 103.993 63.557 105.127V105.127Z" fill="#A5B0BA"/>
<path d="M157.167 288.315C174.184 285.179 185.063 266.99 181.467 247.691C177.87 228.392 161.161 215.289 144.144 218.426C127.128 221.563 116.249 239.751 119.845 259.051C123.442 278.35 140.151 291.452 157.167 288.315Z" fill="#69717F"/>
<path d="M158.679 288.179C175.695 285.042 186.574 266.854 182.978 247.555C179.382 228.255 162.672 215.153 145.656 218.29C128.639 221.427 117.76 239.615 121.357 258.914C124.953 278.213 141.663 291.316 158.679 288.179Z" fill="#6C7482"/>
<path d="M160.193 288.059C177.21 284.922 188.089 266.734 184.492 247.434C180.896 228.135 164.186 215.033 147.17 218.169C130.154 221.306 119.275 239.494 122.871 258.794C126.467 278.093 143.177 291.195 160.193 288.059Z" fill="#6F7684"/>
<path d="M161.705 287.922C178.722 284.786 189.601 266.597 186.004 247.298C182.408 227.999 165.698 214.896 148.682 218.033C131.666 221.17 120.787 239.358 124.383 258.658C127.979 277.957 144.689 291.059 161.705 287.922Z" fill="#717986"/>
<path d="M163.203 287.806C180.219 284.669 191.098 266.481 187.502 247.181C183.906 227.882 167.196 214.78 150.18 217.916C133.164 221.053 122.285 239.241 125.881 258.541C129.477 277.84 146.187 290.942 163.203 287.806Z" fill="#747B89"/>
<path d="M164.718 287.686C181.734 284.549 192.614 266.361 189.017 247.061C185.421 227.762 168.711 214.66 151.695 217.796C134.679 220.933 123.8 239.121 127.396 258.421C130.992 277.72 147.702 290.822 164.718 287.686Z" fill="#767E8B"/>
<path d="M166.212 287.549C183.228 284.412 194.108 266.224 190.511 246.925C186.915 227.625 170.205 214.523 153.189 217.66C136.173 220.797 125.294 238.985 128.89 258.284C132.486 277.584 149.196 290.686 166.212 287.549Z" fill="#79808E"/>
<path d="M167.711 287.433C184.727 284.296 195.606 266.108 192.01 246.808C188.413 227.509 171.704 214.407 154.687 217.543C137.671 220.68 126.792 238.868 130.388 258.168C133.985 277.467 150.694 290.57 167.711 287.433Z" fill="#7B8390"/>
<path d="M169.222 287.295C186.238 284.158 197.117 265.97 193.521 246.671C189.925 227.371 173.215 214.269 156.199 217.406C139.183 220.543 128.304 238.731 131.9 258.03C135.496 277.329 152.206 290.432 169.222 287.295Z" fill="#7E8693"/>
<path d="M167.173 286.505C184.133 283.406 195.002 265.301 191.45 246.066C187.898 226.83 171.269 213.748 154.31 216.847C137.35 219.945 126.48 238.05 130.033 257.286C133.585 276.521 150.213 289.603 167.173 286.505Z" fill="#808995"/>
<path d="M172.249 287.04C189.265 283.903 200.144 265.715 196.548 246.415C192.951 227.116 176.242 214.014 159.225 217.15C142.209 220.287 131.33 238.475 134.926 257.775C138.523 277.074 155.232 290.176 172.249 287.04Z" fill="#838C98"/>
<path d="M173.747 286.923C190.763 283.786 201.642 265.598 198.046 246.299C194.45 226.999 177.74 213.897 160.724 217.034C143.707 220.171 132.828 238.359 136.425 257.658C140.021 276.958 156.731 290.06 173.747 286.923Z" fill="#868F9B"/>
<path d="M175.242 286.785C192.258 283.649 203.137 265.46 199.541 246.161C195.944 226.862 179.235 213.759 162.218 216.896C145.202 220.033 134.323 238.221 137.919 257.521C141.516 276.82 158.225 289.922 175.242 286.785Z" fill="#88919E"/>
<path d="M176.756 286.666C193.772 283.529 204.651 265.341 201.055 246.042C197.459 226.743 180.749 213.64 163.733 216.777C146.717 219.914 135.838 238.102 139.434 257.401C143.03 276.701 159.74 289.803 176.756 286.666Z" fill="#8B94A0"/>
<path d="M178.251 286.55C195.267 283.413 206.146 265.225 202.55 245.925C198.953 226.626 182.244 213.524 165.227 216.661C148.211 219.797 137.332 237.986 140.928 257.285C144.525 276.584 161.234 289.687 178.251 286.55Z" fill="#8E98A3"/>
<path d="M179.766 286.429C196.782 283.293 207.661 265.104 204.065 245.805C200.469 226.506 183.759 213.403 166.743 216.54C149.726 219.677 138.847 237.865 142.444 257.165C146.04 276.464 162.75 289.566 179.766 286.429Z" fill="#919BA6"/>
<path d="M181.277 286.293C198.293 283.156 209.172 264.968 205.576 245.669C201.98 226.37 185.27 213.267 168.254 216.404C151.238 219.541 140.359 237.729 143.955 257.028C147.551 276.328 164.261 289.43 181.277 286.293Z" fill="#949EA9"/>
<path d="M182.792 286.173C199.808 283.036 210.687 264.848 207.091 245.549C203.494 226.249 186.785 213.147 169.768 216.284C152.752 219.42 141.873 237.609 145.469 256.908C149.066 276.207 165.775 289.31 182.792 286.173Z" fill="#97A1AC"/>
<path d="M184.287 286.04C201.303 282.904 212.182 264.715 208.586 245.416C204.99 226.117 188.28 213.014 171.264 216.151C154.248 219.288 143.368 237.476 146.965 256.775C150.561 276.075 167.271 289.177 184.287 286.04Z" fill="#9AA5AF"/>
<path d="M185.785 285.92C202.801 282.783 213.68 264.595 210.084 245.296C206.487 225.996 189.778 212.894 172.761 216.031C155.745 219.168 144.866 237.356 148.462 256.655C152.059 275.954 168.768 289.057 185.785 285.92Z" fill="#9DA8B3"/>
<path d="M187.299 285.8C204.315 282.663 215.194 264.475 211.598 245.175C208.002 225.876 191.292 212.774 174.276 215.911C157.26 219.047 146.381 237.236 149.977 256.535C153.573 275.834 170.283 288.937 187.299 285.8Z" fill="#A1ACB6"/>
<path d="M188.794 285.667C205.811 282.53 216.69 264.342 213.093 245.043C209.497 225.743 192.788 212.641 175.771 215.778C158.755 218.915 147.876 237.103 151.472 256.402C155.068 275.702 171.778 288.804 188.794 285.667Z" fill="#A5B0BA"/>
<path d="M119.132 189.19L119.319 189.511C119.909 190.487 120.734 191.303 121.718 191.885C122.703 192.468 123.817 192.799 124.962 192.849C126.106 192.899 127.246 192.667 128.278 192.173C129.31 191.679 130.204 190.938 130.878 190.017C143.117 173.134 172.925 140.228 208.962 149.733C227.159 154.528 235.986 163.24 254.2 190.524C255.19 191.986 256.709 193.014 258.44 193.395C260.172 193.775 261.984 193.478 263.502 192.566V192.566C265.04 191.654 266.163 190.183 266.635 188.464C267.106 186.745 266.89 184.912 266.031 183.348C258.325 169.419 236.105 135.99 202.172 134.386C166.525 132.698 139.96 151.911 119.319 181.778C118.582 182.868 118.173 184.144 118.14 185.457C118.107 186.77 118.451 188.065 119.132 189.19V189.19Z" fill="url(#paint0_linear)"/>
<path d="M92.9057 145.833L93.0925 146.154C93.6818 147.133 94.5063 147.95 95.492 148.534C96.4777 149.118 97.5937 149.449 98.7397 149.497C99.8858 149.546 101.026 149.31 102.058 148.812C103.09 148.314 103.981 147.569 104.652 146.643C116.891 129.76 148.023 75.243 206.297 83.9042C241.248 89.1044 263.196 118.482 281.41 145.816C282.401 147.279 283.919 148.307 285.65 148.687C287.382 149.067 289.194 148.771 290.712 147.859V147.859C292.247 146.943 293.367 145.473 293.839 143.755C294.31 142.037 294.096 140.205 293.241 138.641C285.518 124.712 250.177 66.4467 192.208 68.3039C146.02 69.7728 113.768 108.504 93.1094 138.37C92.364 139.466 91.9488 140.75 91.9127 142.072C91.8766 143.394 92.2211 144.699 92.9057 145.833V145.833Z" fill="url(#paint1_linear)"/>
<path d="M64.7619 103.608L64.9486 103.912C65.5364 104.892 66.3598 105.711 67.3447 106.296C68.3296 106.881 69.4452 107.214 70.5913 107.264C71.7374 107.314 72.878 107.08 73.9108 106.584C74.9436 106.087 75.8362 105.343 76.5084 104.418C88.7472 87.5348 117.808 20.0009 192.751 16.0839C247.07 13.2475 288.93 71.7995 307.127 99.0832C308.118 100.551 309.639 101.582 311.375 101.962C313.111 102.343 314.927 102.043 316.446 101.126V101.126C317.985 100.213 319.107 98.7418 319.576 97.0219C320.044 95.3021 319.823 93.4684 318.958 91.9077C311.252 77.9788 256.729 -7.40097 184.943 0.517387C114.124 8.31756 85.6238 66.363 64.9656 96.1286C64.2206 97.2272 63.8058 98.5141 63.7697 99.8388C63.7336 101.163 64.0778 102.471 64.7619 103.608Z" fill="url(#paint2_linear)"/>
<path d="M189.927 283.887C206.943 280.75 217.822 262.562 214.226 243.262C210.63 223.963 193.92 210.86 176.904 213.997C159.888 217.134 149.009 235.322 152.605 254.622C156.201 273.921 172.911 287.023 189.927 283.887Z" fill="url(#paint3_linear)"/>
<defs>
<linearGradient id="paint0_linear" x1="52802.2" y1="18543.4" x2="65837.9" y2="18543.4" gradientUnits="userSpaceOnUse">
<stop stop-color="#9ED08B"/>
<stop offset="0.46" stop-color="#ABD47C"/>
<stop offset="1" stop-color="#95CE97"/>
</linearGradient>
<linearGradient id="paint1_linear" x1="68578.2" y1="22653.8" x2="92659.1" y2="22653.8" gradientUnits="userSpaceOnUse">
<stop stop-color="#9ED08B"/>
<stop offset="0.46" stop-color="#ABD47C"/>
<stop offset="1" stop-color="#95CE97"/>
</linearGradient>
<linearGradient id="paint2_linear" x1="82555.2" y1="26311.3" x2="121180" y2="26311.3" gradientUnits="userSpaceOnUse">
<stop stop-color="#9ED08B"/>
<stop offset="0.46" stop-color="#ABD47C"/>
<stop offset="1" stop-color="#95CE97"/>
</linearGradient>
<linearGradient id="paint3_linear" x1="23596.5" y1="25872.4" x2="25922.2" y2="25872.4" gradientUnits="userSpaceOnUse">
<stop stop-color="#9ED08B"/>
<stop offset="0.46" stop-color="#ABD47C"/>
<stop offset="1" stop-color="#95CE97"/>
</linearGradient>
</defs>
</svg>
